<?xml version="1.0" encoding="UTF-8" standalone="no"?>
<svg width="1000" height="1000" viewBox="0 0 1000 1000" version="1.1" id="svg35" sodipodi:docname="sineWave.svg"
   inkscape:version="1.1 (c4e8f9ed74, 2021-05-24)" xmlns:inkscape="http://www.inkscape.org/namespaces/inkscape"
   xmlns:sodipodi="http://sodipodi.sourceforge.net/DTD/sodipodi-0.dtd" xmlns="http://www.w3.org/2000/svg"
   xmlns:svg="http://www.w3.org/2000/svg">
   <defs id="defs39" />
   <sodipodi:namedview id="namedview37" pagecolor="#ffffff" bordercolor="#666666" borderopacity="1.0"
      inkscape:pageshadow="2" inkscape:pageopacity="0.0" inkscape:pagecheckerboard="0" showgrid="false"
      inkscape:zoom="0.236" inkscape:cx="500" inkscape:cy="497.88136" inkscape:window-width="718"
      inkscape:window-height="513" inkscape:window-x="1190" inkscape:window-y="499" inkscape:window-maximized="1"
      inkscape:current-layer="svg35" />
   <path
      d="M736,818C634,818,569,706,494,577C487,564,480,551,472,538C464,525,457,512,450,500C386,390,331,295,271,295C254,295,190,313,70,537L6,503C155,222,242,222,271,222C373,222,438,334,513,463C520,476,527,489,535,502C543,515,550,528,557,540C621,650,676,745,736,745C753,745,817,727,937,503L1001,537C852,818,765,818,736,818z"
      id="path33" style="fill:#ffffff" />
</svg>